<?xml version="1.0" encoding="utf-8"?>
<!-- Generator: Adobe Illustrator 19.0.0, SVG Export Plug-In . SVG Version: 6.00 Build 0)  -->
<svg version="1.1" xmlns="http://www.w3.org/2000/svg" xmlns:xlink="http://www.w3.org/1999/xlink" x="0px" y="0px"
	 viewBox="0 0 100 100" enable-background="new 0 0 100 100" xml:space="preserve">
	 <defs>
		<style type="text/css"><![CDATA[
			
            #sunImage{
                height:50px;
                width:50px;
            }
            #sunrays {
                transform-origin: 50% 50%;
                animation: spin 9s linear infinite;

            }
			#smallsunrays{
				transform-origin: 50% 50%;
				animation: spin 9s linear infinite;
			}
            @keyframes spin {
                100% {
                    -webkit-transform: rotate(360deg);
                    transform: rotate(360deg);
                }
            }
		]]></style>
	</defs>
<g id="sunrays">
	<path id="XMLID_5_" fill="#A29934" d="M50.1,22.1c0.7,0,1.4,0,2.1,0.1c0.3-0.8,0.4-1.8,0.4-2.8V5.6c0-3.1-1.4-5.6-3-5.6h0
		c-1.7,0-3,2.5-3,5.6v13.8c0,1.1,0.2,2.1,0.5,3C48,22.1,49.1,22.1,50.1,22.1z"/>
	<path id="XMLID_4_" fill="#A29934" d="M29.1,29.3c0.5-0.5,1-0.9,1.5-1.3c-0.5-0.9-1.2-1.9-2.1-2.8L16.9,12.8
		c-2.6-2.7-5.7-4.1-6.8-3l0,0c-1.2,1.1,0,4.2,2.6,7l11.7,12.4c0.9,1,1.9,1.8,2.9,2.4C27.7,30.7,28.3,30,29.1,29.3z"/>
	<path id="XMLID_6_" fill="#A29934" d="M23.2,49.3c0-0.6,0-1.2,0.1-1.7c-0.9-0.2-1.8-0.3-2.9-0.3L6.3,47.4c-3.1,0-5.7,1.2-5.7,2.6
		l0,0c0,1.4,2.6,2.5,5.7,2.5l14.1-0.2c1.1,0,2.2-0.2,3-0.4C23.4,51.1,23.3,50.2,23.2,49.3z"/>
	<path id="XMLID_7_" fill="#A29934" d="M29.5,68.5c-0.5-0.5-1-1-1.4-1.5c-0.9,0.5-1.7,1.2-2.5,2.1L14.8,80.7
		c-2.4,2.6-3.4,5.6-2.1,6.7l0,0c1.2,1.1,4.2,0,6.6-2.6L30,73.2c0.9-0.9,1.5-1.9,2-2.8C31.2,69.9,30.3,69.3,29.5,68.5z"/>
	<path id="XMLID_8_" fill="#A29934" d="M49.8,77.7c-0.6,0-1.2-0.1-1.7-0.1c-0.2,0.8-0.4,1.8-0.4,2.9l-0.1,14c0,3.1,1.1,5.7,2.4,5.7
		h0c1.4,0,2.5-2.5,2.5-5.6l0.1-14c0-1.1-0.1-2.1-0.4-3C51.5,77.6,50.6,77.7,49.8,77.7z"/>
	<path id="XMLID_9_" fill="#A29934" d="M69.5,69.8c-0.5,0.5-1,0.9-1.5,1.2c0.5,0.8,1.1,1.7,1.9,2.5l10.6,11c2.3,2.4,5.2,3.6,6.3,2.5
		l0,0c1.1-1.1,0.1-3.9-2.2-6.4L74,69.7c-0.8-0.9-1.7-1.6-2.6-2.1C70.8,68.4,70.2,69.1,69.5,69.8z"/>
	<path id="XMLID_10_" fill="#A29934" d="M77.9,50.8c0,0.6-0.1,1.2-0.1,1.7c0.8,0.2,1.8,0.4,2.8,0.4l13.8,0.2c3.1,0,5.6-1.1,5.6-2.5
		v0c0-1.4-2.5-2.6-5.5-2.6l-13.8-0.2c-1.1,0-2.1,0.1-3,0.4C77.8,49.1,77.9,49.9,77.9,50.8z"/>
	<path id="XMLID_3_" fill="#A29934" d="M69.4,30.2c0.5,0.5,0.9,0.9,1.3,1.4c0.9-0.6,1.8-1.3,2.7-2.2l11.8-12.1
		c2.6-2.7,3.8-5.8,2.7-6.8l0,0c-1.1-1.1-4.1,0.2-6.7,2.9L69.4,25.5c-0.9,1-1.7,2-2.2,2.9C67.9,28.9,68.7,29.5,69.4,30.2z"/>
</g>
<g id="sun">
	<path id="XMLID_22_" fill="#A29934" d="M50,27.2c-12.6,0-22.8,10.2-22.8,22.8c0,12.6,10.2,22.8,22.8,22.8s22.8-10.2,22.8-22.8
		C72.8,37.4,62.6,27.2,50,27.2z M39,37.9c-0.9,1.8-1.9,4.7-2.5,7.8c-0.7,3.3-1.2,5.7-1.2,8.7c0,2.4-2.5,3.2-3.6,2.9
		c-2.2-0.5-2.8-6.3-1.4-13c1.4-6.7,8.4-13.3,10.6-12.8C42.1,31.8,40.2,35.5,39,37.9z"/>
</g>
<g id="smallsunrays">
	<path id="XMLID_11_" fill="#A29934" d="M75.9,39.5c0.3,0.5,0.5,1,0.7,1.4c0.4,0,0.8-0.1,1.2-0.3l5.1-2.7c1.1-0.6,1.6-2,1-3.2l0,0
		c-0.6-1.1-2-1.6-3.2-1l-5.1,2.7c-0.4,0.2-0.7,0.5-0.9,0.9C75.1,38,75.5,38.7,75.9,39.5z"/>
	<path id="XMLID_12_" fill="#A29934" d="M75.6,60.7c-0.3,0.5-0.6,0.9-0.9,1.4c0.2,0.4,0.5,0.7,0.9,0.9l5,3c1.1,0.7,2.6,0.3,3.2-0.8
		l0,0c0.7-1.1,0.3-2.6-0.8-3.2l-5-3c-0.4-0.2-0.8-0.3-1.3-0.3C76.4,59.3,76,60,75.6,60.7z"/>
	<path id="XMLID_13_" fill="#A29934" d="M61.1,76.2c-0.5,0.2-1,0.3-1.5,0.4c-0.1,0.4-0.1,0.8,0,1.2l1.8,5.5c0.4,1.2,1.7,1.9,2.9,1.5
		l0,0c1.2-0.4,1.9-1.7,1.5-2.9l-1.8-5.5c-0.1-0.4-0.4-0.8-0.7-1.1C62.7,75.7,61.9,76,61.1,76.2z"/>
	<path id="XMLID_14_" fill="#A29934" d="M38.6,76c-0.5-0.2-1-0.4-1.5-0.7c-0.3,0.2-0.6,0.6-0.8,1l-2.2,5.4c-0.5,1.2,0.1,2.6,1.3,3.1
		l0,0c1.2,0.5,2.6-0.1,3.1-1.3l2.2-5.4c0.2-0.4,0.2-0.9,0.1-1.3C40.1,76.6,39.3,76.3,38.6,76z"/>
	<path id="XMLID_15_" fill="#A29934" d="M22.4,60.4c-0.2-0.5-0.4-1-0.6-1.5c-0.4,0-0.8,0-1.2,0.2l-5.3,2.4c-1.2,0.5-1.7,1.9-1.2,3.1
		l0,0c0.5,1.2,1.9,1.7,3.1,1.2l5.3-2.4c0.4-0.2,0.8-0.5,1-0.9C23.1,61.8,22.7,61.1,22.4,60.4z"/>
	<path id="XMLID_16_" fill="#A29934" d="M22.9,37.7c0.2-0.5,0.4-1,0.6-1.5c-0.3-0.3-0.6-0.6-1-0.7l-5.4-2.1c-1.2-0.5-2.6,0.1-3,1.3
		l0,0c-0.5,1.2,0.1,2.6,1.3,3l5.4,2.1c0.4,0.2,0.9,0.2,1.3,0.1C22.4,39.2,22.6,38.5,22.9,37.7z"/>
	<path id="XMLID_17_" fill="#A29934" d="M38.6,23.8c0.5-0.2,1-0.4,1.5-0.6c0-0.4,0-0.8-0.2-1.2l-2.4-5.3c-0.5-1.2-1.9-1.7-3.1-1.2
		l0,0c-1.2,0.5-1.7,1.9-1.2,3.1l2.4,5.3c0.2,0.4,0.5,0.8,0.9,1C37.1,24.5,37.8,24.2,38.6,23.8z"/>
	<path id="XMLID_18_" fill="#A29934" d="M61.4,24.1c0.5,0.2,1,0.5,1.4,0.7c0.3-0.2,0.6-0.5,0.8-0.9l2.5-5.2c0.6-1.2,0-2.6-1.1-3.1
		l0,0c-1.2-0.6-2.6,0-3.1,1.1l-2.5,5.2c-0.2,0.4-0.3,0.9-0.2,1.3C59.9,23.5,60.6,23.8,61.4,24.1z"/>
</g>
</svg>
